<svg xmlns="http://www.w3.org/2000/svg" xmlns:xlink="http://www.w3.org/1999/xlink" version="1.1" width="256" height="256" viewBox="0 0 256 256" xml:space="preserve">
<g style="stroke: none; stroke-width: 0; stroke-dasharray: none; stroke-linecap: butt; stroke-linejoin: miter; stroke-miterlimit: 10; fill: none; fill-rule: nonzero; opacity: 1;" transform="translate(1.4065934065934016 1.4065934065934016) scale(2.81 2.81)">
	<path d="M 35.982 81.106 c -13.1 0 -23.756 -5.859 -30.002 -16.498 C 0.451 55.282 0 45.181 0 33.895 c 0 -6.691 2.013 -12.517 5.819 -16.849 c 3.497 -3.979 8.453 -6.556 13.956 -7.258 c 6.532 -0.828 14.654 -0.896 23.097 -0.896 c 13.74 0 17.622 0.168 23.028 0.709 c 7.192 0.714 13.243 3.398 17.496 7.763 C 87.717 21.798 90 27.718 90 34.492 v 1.361 c 0 11.559 -7.727 21.233 -18.497 23.863 c -0.804 1.897 -1.8 3.784 -2.978 5.643 l -0.031 0.047 C 64.7 71.271 55.782 81.108 38.701 81.108 h -2.722 L 35.982 81.106 z" style="stroke: none; stroke-width: 1; stroke-dasharray: none; stroke-linecap: butt; stroke-linejoin: miter; stroke-miterlimit: 10; fill: rgb(255,255,255); fill-rule: nonzero; opacity: 1;" transform=" matrix(1 0 0 1 0 0) " stroke-linecap="round"/>
	<path d="M 65.336 15.261 c -5.105 -0.51 -8.678 -0.681 -22.462 -0.681 c -8.849 0 -16.337 0.085 -22.376 0.851 c -7.998 1.022 -14.805 7.147 -14.805 18.464 c 0 11.317 0.595 20.081 5.19 27.823 c 5.19 8.849 13.869 13.698 25.101 13.698 h 2.722 c 13.783 0 21.271 -7.317 25.015 -13.103 c 1.617 -2.554 2.807 -5.105 3.573 -7.659 c 9.785 -0.851 17.017 -8.934 17.017 -18.803 v -1.361 c 0 -10.634 -6.976 -18.037 -18.974 -19.23 H 65.336 z" style="stroke: none; stroke-width: 1; stroke-dasharray: none; stroke-linecap: butt; stroke-linejoin: miter; stroke-miterlimit: 10; fill: rgb(255,255,255); fill-rule: nonzero; opacity: 1;" transform=" matrix(1 0 0 1 0 0) " stroke-linecap="round"/>
	<path d="M 5.691 33.895 c 0 -11.317 6.807 -17.442 14.805 -18.464 c 6.042 -0.766 13.53 -0.851 22.376 -0.851 c 13.783 0 17.356 0.171 22.461 0.681 c 11.998 1.19 18.974 8.593 18.974 19.23 v 1.361 c 0 9.871 -7.232 17.954 -17.017 18.803 c -0.766 2.554 -1.956 5.105 -3.573 7.659 c -3.744 5.785 -11.232 13.103 -25.015 13.103 H 35.98 c -11.232 0 -19.91 -4.849 -25.101 -13.698 c -4.595 -7.742 -5.19 -16.337 -5.19 -27.823" style="stroke: none; stroke-width: 1; stroke-dasharray: none; stroke-linecap: butt; stroke-linejoin: miter; stroke-miterlimit: 10; fill: rgb(32,32,32); fill-rule: nonzero; opacity: 1;" transform=" matrix(1 0 0 1 0 0) " stroke-linecap="round"/>
	<path d="M 12.071 33.98 c 0 10.976 0.681 18.037 4.254 24.589 c 4.083 7.573 11.486 10.466 19.91 10.466 h 2.636 c 11.062 0 16.422 -5.361 19.401 -10.04 c 1.446 -2.383 2.722 -5.019 3.403 -8.339 l 0.51 -2.127 h 3.064 c 6.807 0 12.678 -5.529 12.678 -12.593 V 34.66 c 0 -7.912 -4.934 -12.083 -13.529 -13.103 c -4.849 -0.424 -7.742 -0.595 -21.527 -0.595 c -9.274 0 -15.91 0.085 -20.93 0.851 c -7.061 1.022 -9.871 5.02 -9.871 12.166" style="stroke: none; stroke-width: 1; stroke-dasharray: none; stroke-linecap: butt; stroke-linejoin: miter; stroke-miterlimit: 10; fill: rgb(255,255,255); fill-rule: nonzero; opacity: 1;" transform=" matrix(1 0 0 1 0 0) " stroke-linecap="round"/>
	<path d="M 62.188 39.85 c 0 1.022 0.766 1.788 2.127 1.788 c 4.339 0 6.722 -2.468 6.722 -6.551 s -2.383 -6.637 -6.722 -6.637 c -1.361 0 -2.127 0.766 -2.127 1.788 v 9.615 V 39.85 z" style="stroke: none; stroke-width: 1; stroke-dasharray: none; stroke-linecap: butt; stroke-linejoin: miter; stroke-miterlimit: 10; fill: rgb(32,32,32); fill-rule: nonzero; opacity: 1;" transform=" matrix(1 0 0 1 0 0) " stroke-linecap="round"/>
	<path d="M 20.411 39.338 c 0 5.02 2.807 9.359 6.381 12.764 c 2.383 2.298 6.127 4.681 8.678 6.212 c 0.766 0.425 1.532 0.681 2.383 0.681 c 1.022 0 1.871 -0.256 2.554 -0.681 c 2.554 -1.532 6.295 -3.914 8.593 -6.212 c 3.659 -3.403 6.466 -7.742 6.466 -12.764 c 0 -5.446 -4.083 -10.295 -9.954 -10.295 c -3.488 0 -5.871 1.788 -7.659 4.254 c -1.617 -2.468 -4.083 -4.254 -7.573 -4.254 c -5.956 0 -9.871 4.849 -9.871 10.295" style="stroke: none; stroke-width: 1; stroke-dasharray: none; stroke-linecap: butt; stroke-linejoin: miter; stroke-miterlimit: 10; fill: rgb(255,90,22); fill-rule: nonzero; opacity: 1;" transform=" matrix(1 0 0 1 0 0) " stroke-linecap="round"/>
</g>
</svg>